<svg id="visual" viewBox="0 0 900 600" width="900" height="600" xmlns="http://www.w3.org/2000/svg" xmlns:xlink="http://www.w3.org/1999/xlink" version="1.1"><path d="M0 410L21.5 391.8C43 373.7 86 337.3 128.8 327.2C171.7 317 214.3 333 257.2 348C300 363 343 377 385.8 384.2C428.7 391.3 471.3 391.7 514.2 396.7C557 401.7 600 411.3 642.8 399.2C685.7 387 728.3 353 771.2 349.2C814 345.3 857 371.7 878.5 384.8L900 398L900 0L878.5 0C857 0 814 0 771.2 0C728.3 0 685.7 0 642.8 0C600 0 557 0 514.2 0C471.3 0 428.7 0 385.8 0C343 0 300 0 257.2 0C214.3 0 171.7 0 128.8 0C86 0 43 0 21.5 0L0 0Z" fill="#fa7268"></path><path d="M0 250L21.5 254.5C43 259 86 268 128.8 271.7C171.7 275.3 214.3 273.7 257.2 265.8C300 258 343 244 385.8 253.5C428.7 263 471.3 296 514.2 308C557 320 600 311 642.8 303.2C685.7 295.3 728.3 288.7 771.2 296C814 303.3 857 324.7 878.5 335.3L900 346L900 0L878.5 0C857 0 814 0 771.2 0C728.3 0 685.7 0 642.8 0C600 0 557 0 514.2 0C471.3 0 428.7 0 385.8 0C343 0 300 0 257.2 0C214.3 0 171.7 0 128.8 0C86 0 43 0 21.5 0L0 0Z" fill="#ef5f67"></path><path d="M0 186L21.5 186.8C43 187.7 86 189.3 128.8 199.2C171.7 209 214.3 227 257.2 231.3C300 235.7 343 226.3 385.8 227.7C428.7 229 471.3 241 514.2 234.5C557 228 600 203 642.8 206.2C685.7 209.3 728.3 240.7 771.2 241.8C814 243 857 214 878.5 199.5L900 185L900 0L878.5 0C857 0 814 0 771.2 0C728.3 0 685.7 0 642.8 0C600 0 557 0 514.2 0C471.3 0 428.7 0 385.8 0C343 0 300 0 257.2 0C214.3 0 171.7 0 128.8 0C86 0 43 0 21.5 0L0 0Z" fill="#e34c67"></path><path d="M0 162L21.5 154.3C43 146.7 86 131.3 128.8 130C171.7 128.7 214.3 141.3 257.2 153.7C300 166 343 178 385.8 179.8C428.7 181.7 471.3 173.3 514.2 161.5C557 149.7 600 134.3 642.8 132.7C685.7 131 728.3 143 771.2 156.3C814 169.7 857 184.3 878.5 191.7L900 199L900 0L878.5 0C857 0 814 0 771.2 0C728.3 0 685.7 0 642.8 0C600 0 557 0 514.2 0C471.3 0 428.7 0 385.8 0C343 0 300 0 257.2 0C214.3 0 171.7 0 128.8 0C86 0 43 0 21.5 0L0 0Z" fill="#d53867"></path><path d="M0 124L21.5 120.8C43 117.7 86 111.3 128.8 109.7C171.7 108 214.3 111 257.2 112.2C300 113.3 343 112.7 385.8 102.5C428.7 92.3 471.3 72.7 514.2 61.8C557 51 600 49 642.8 48.2C685.7 47.3 728.3 47.7 771.2 60.3C814 73 857 98 878.5 110.5L900 123L900 0L878.5 0C857 0 814 0 771.2 0C728.3 0 685.7 0 642.8 0C600 0 557 0 514.2 0C471.3 0 428.7 0 385.8 0C343 0 300 0 257.2 0C214.3 0 171.7 0 128.8 0C86 0 43 0 21.5 0L0 0Z" fill="#c62368"></path></svg>